#!OML:ASF E:\CV Data\Top Level 1\Subject 1\Session 1\player.ASF
:FULLY-SPECIFIED
:DEGREES
541
root -1.03564 17.3966 -10.1795 -8.46037 51.2933 -11.3421
lowerback 2.6346 -0.0628597 1.85506
upperback -3.86965 0.0856717 0.951583
thorax -5.4828 -0.00171617 -0.0606345
lowerneck 5.66161 -12.7213 -18.2041
upperneck -27.4954 -15.1488 21.892
head -5.68394 -7.54567 10.9314
rclavicle 3.77691e-014 4.77083e-015
rhumerus 77.8539 -14.3137 -40.3401
rradius 28.5377
rwrist 18.8599
rhand 24.2746 -7.25827
rfingers 7.12502
rthumb 48.4943 -29.2371
lclavicle 3.77691e-014 4.77083e-015
lhumerus 65.1894 -7.12032 24.6514
lradius 65.5998
lwrist -8.23865
lhand -12.7026 -4.97182
lfingers 7.12502
lthumb 13.3799 24.5785
rfemur -9.74765 2.53333 27.1716
rtibia 33.6253
rfoot -21.3427 -10.4807
rtoes 4.69503
lfemur -7.63337 1.72135 -14.8743
ltibia 32.2261
lfoot -20.0447 2.50743
ltoes 7.00797
542
root -1.03807 17.4102 -10.1747 -8.24815 51.5348 -11.3772
lowerback 2.55556 -0.0351275 1.80054
upperback -3.90162 0.119989 0.968401
thorax -5.47061 0.0182135 -0.0151752
lowerneck 5.57309 -12.8242 -18.1751
upperneck -27.6545 -15.2368 21.9796
head -5.69059 -7.58991 10.9548
rclavicle 2.95195e-014 -8.74653e-015
rhumerus 77.7555 -14.4634 -40.7478
rradius 28.5211
rwrist 18.5893
rhand 24.0161 -7.00807
rfingers 7.12502
rthumb 48.2563 -29.1004
lclavicle 2.95195e-014 -8.74653e-015
lhumerus 64.4348 -7.42693 24.1186
lradius 66.1988
lwrist -7.89291
lhand -11.096 -4.99151
lfingers 7.12502
lthumb 14.928 24.4506
rfemur -9.91927 2.46025 27.1656
rtibia 33.4361
rfoot -21.2342 -10.5787
rtoes 4.83906
lfemur -7.80595 1.52188 -14.8773
ltibia 31.9834
lfoot -19.9183 2.41008
ltoes 7.17454
543
root -1.04175 17.4234 -10.1703 -8.06296 51.8031 -11.4144
lowerback 2.5271 -0.02194 1.75095
upperback -3.91668 0.135707 0.982673
thorax -5.46993 0.0285148 0.0262617
lowerneck 5.48161 -12.927 -18.1438
upperneck -27.8481 -15.3176 22.0816
head -5.70719 -7.63098 10.9862
rclavicle 8.88567e-014 3.18055e-015
rhumerus 77.6971 -14.6481 -41.167
rradius 28.4918
rwrist 18.242
rhand 23.6332 -6.73831
rfingers 7.12502
rthumb 47.9034 -28.9961
lclavicle 8.88567e-014 3.18055e-015
lhumerus 63.6606 -7.70593 23.5706
lradius 66.8401
lwrist -7.45644
lhand -9.5206 -4.92236
lfingers 7.12502
lthumb 16.4453 24.4006
rfemur -10.0714 2.36886 27.1621
rtibia 33.2548
rfoot -21.1288 -10.6942
rtoes 4.97367
lfemur -7.96865 1.32378 -14.8812
ltibia 31.752
lfoot -19.7881 2.30476
ltoes 7.35141
544
root -1.0464 17.4362 -10.1661 -7.89412 52.1001 -11.4391
lowerback 2.53439 -0.0197708 1.68859
upperback -3.9089 0.136279 0.99979
thorax -5.46594 0.0318414 0.0788505
lowerneck 5.39825 -13.0291 -18.1154
upperneck -28.0902 -15.3937 22.1883
head -5.74046 -7.66862 11.0257
rclavicle -1.71452e-014 1.03368e-014
rhumerus 77.6837 -14.8682 -41.581
rradius 28.4445
rwrist 17.7829
rhand 23.1235 -6.46862
rfingers 7.12502
rthumb 47.433 -28.9417
lclavicle -1.71452e-014 1.03368e-014
lhumerus 62.8682 -7.95911 23.039
lradius 67.5043
lwrist -6.99072
lhand -8.03687 -4.8048
lfingers 7.12502
lthumb 17.8734 24.3939
rfemur -10.2039 2.25464 27.1499
rtibia 33.0843
rfoot -21.0253 -10.8217
rtoes 5.08051
lfemur -8.11689 1.13205 -14.8943
ltibia 31.5257
lfoot -19.6533 2.17959
ltoes 7.5328
545
root -1.05176 17.4486 -10.1617 -7.74308 52.4248 -11.4527
lowerback 2.58127 -0.0228936 1.63487
upperback -3.88988 0.129767 0.998637
thorax -5.47284 0.0307062 0.108185
lowerneck 5.34978 -13.1325 -18.0573
upperneck -28.3741 -15.4704 22.2917
head -5.79593 -7.7088 11.0677
rclavicle -4.99943e-014 -1.35174e-014
rhumerus 77.6844 -15.1226 -42.0162
rradius 28.372
rwrist 17.2025
rhand 22.4945 -6.21979
rfingers 7.12502
rthumb 46.8514 -28.9512
lclavicle -4.99943e-014 -1.35174e-014
lhumerus 62.0758 -8.2188 22.5046
lradius 68.1833
lwrist -6.52244
lhand -6.66307 -4.68812
lfingers 7.12502
lthumb 19.1948 24.3846
rfemur -10.3155 2.10969 27.1298
rtibia 32.9248
rfoot -20.9221 -10.9536
rtoes 5.14391
lfemur -8.24767 0.954688 -14.9125
ltibia 31.3031
lfoot -19.5154 2.01958
ltoes 7.70401
546
root -1.05772 17.4604 -10.1571 -7.60489 52.7742 -11.4524
lowerback 2.65641 -0.0345311 1.58121
upperback -3.85428 0.111443 0.988823
thorax -5.47859 0.0234253 0.129361
lowerneck 5.31412 -13.2342 -17.9857
upperneck -28.6883 -15.5433 22.389
head -5.86611 -7.7472 11.1107
rclavicle 8.29926e-014 1.59028e-015
rhumerus 77.7302 -15.4011 -42.4973
rradius 28.2708
rwrist 16.5213
rhand 21.7773 -5.99473
rfingers 7.12502
rthumb 46.187 -29.011
lclavicle 8.29926e-014 1.59028e-015
lhumerus 61.2724 -8.47314 21.9858
lradius 68.8619
lwrist -6.08123
lhand -5.47024 -4.58103
lfingers 7.12502
lthumb 20.3415 24.3737
rfemur -10.408 1.94432 27.1016
rtibia 32.777
rfoot -20.8191 -11.0949
rtoes 5.17486
lfemur -8.36409 0.803431 -14.9354
ltibia 31.0866
lfoot -19.3785 1.8221
ltoes 7.81926
547
root -1.06407 17.4714 -10.1523 -7.48786 53.1427 -11.4562
lowerback 2.75025 -0.0475056 1.54369
upperback -3.80726 0.0915804 0.967625
thorax -5.48302 0.014396 0.12983
lowerneck 5.30509 -13.3374 -17.8911
upperneck -29.0269 -15.6192 22.4778
head -5.95152 -7.78857 11.1531
rclavicle -1.08835e-014 -1.19271e-014
rhumerus 77.7945 -15.71 -43.0223
rradius 28.1612
rwrist 15.7669
rhand 21.0057 -5.80507
rfingers 7.12502
rthumb 45.4708 -29.1168
lclavicle -1.08835e-014 -1.19271e-014
lhumerus 60.4778 -8.73948 21.4878
lradius 69.5306
lwrist -5.67815
lhand -4.49668 -4.49005
lfingers 7.12502
lthumb 21.2769 24.3621
rfemur -10.4855 1.76573 27.0781
rtibia 32.6372
rfoot -20.7134 -11.2501
rtoes 5.15283
lfemur -8.47465 0.676996 -14.9499
ltibia 30.8834
lfoot -19.2474 1.58271
ltoes 7.89118
548
root -1.07072 17.4817 -10.1474 -7.3946 53.5193 -11.4761
lowerback 2.85368 -0.0600264 1.52334
upperback -3.75159 0.0730979 0.945051
thorax -5.48386 0.00531154 0.119179
lowerneck 5.31221 -13.4433 -17.7879
upperneck -29.3699 -15.7021 22.5579
head -6.04206 -7.83382 11.1933
rclavicle 5.01931e-015 5.56597e-015
rhumerus 77.8822 -16.0403 -43.5744
rradius 28.0401
rwrist 14.9743
rhand 20.1871 -5.63636
rfingers 7.12502
rthumb 44.7093 -29.2495
lclavicle 5.01931e-015 5.56597e-015
lhumerus 59.6883 -9.02022 21.0262
lradius 70.1823
lwrist -5.30812
lhand -3.72503 -4.41347
lfingers 7.12502
lthumb 22.018 24.3532
rfemur -10.5538 1.58461 27.0681
rtibia 32.5012
rfoot -20.6033 -11.4218
rtoes 5.10037
lfemur -8.58968 0.577213 -14.9476
ltibia 30.7023
lfoot -19.1252 1.30952
ltoes 7.90068
549
root -1.07774 17.4914 -10.1422 -7.33359 53.8997 -11.532
lowerback 2.96166 -0.0734965 1.53363
upperback -3.69248 0.0550835 0.922941
thorax -5.48373 -0.0047608 0.0918402
lowerneck 5.32479 -13.5525 -17.6863
upperneck -29.6982 -15.7919 22.6402
head -6.12741 -7.88345 11.2334
rclavicle -1.04113e-013 -1.35174e-014
rhumerus 77.9946 -16.3842 -44.1923
rradius 27.927
rwrist 14.2284
rhand 19.3786 -5.49338
rfingers 7.12502
rthumb 43.9558 -29.3927
lclavicle -1.04113e-013 -1.35174e-014
lhumerus 58.8988 -9.3179 20.6078
lradius 70.8157
lwrist -4.96254
lhand -3.14465 -4.34215
lfingers 7.12502
lthumb 22.5751 24.3579
rfemur -10.6163 1.4267 27.0884
rtibia 32.3629
rfoot -20.4889 -11.6333
rtoes 5.01929
lfemur -8.72081 0.504164 -14.9145
ltibia 30.5514
lfoot -19.0176 1.00366
ltoes 7.88203
550
root -1.085 17.5005 -10.137 -7.30135 54.2752 -11.6295
lowerback 3.06974 -0.0857395 1.58316
upperback -3.63652 0.0411705 0.901959
thorax -5.48704 -0.0143331 0.0434176
lowerneck 5.34297 -13.6645 -17.5973
upperneck -29.9974 -15.8896 22.7324
head -6.20065 -7.93832 11.2757
rclavicle 5.12864e-014 2.38542e-015
rhumerus 78.1315 -16.7352 -44.8526
rradius 27.8048
rwrist 13.5541
rhand 18.5466 -5.3353
rfingers 7.12502
rthumb 43.1788 -29.5178
lclavicle 5.12864e-014 2.38542e-015
lhumerus 58.1027 -9.64035 20.2391
lradius 71.4346
lwrist -4.61385
lhand -2.74191 -4.25111
lfingers 7.12502
lthumb 22.9616 24.4014
rfemur -10.6812 1.2924 27.1408
rtibia 32.2181
rfoot -20.3681 -11.8788
rtoes 4.9312
lfemur -8.88026 0.452465 -14.8498
ltibia 30.4386
lfoot -18.924 0.674533
ltoes 7.86836
551
root -1.09256 17.5092 -10.1312 -7.29488 54.6453 -11.7689
lowerback 3.17237 -0.101337 1.65849
upperback -3.58364 0.0249327 0.891496
thorax -5.49061 -0.0257882 -0.00834918
lowerneck 5.34526 -13.7801 -17.5321
upperneck -30.2556 -15.996 22.8314
head -6.25325 -7.99701 11.3169
rclavicle -8.00605e-014 1.11319e-014
rhumerus 78.307 -17.08 -45.5387
rradius 27.6661
rwrist 12.9548
rhand 17.6896 -5.14771
rfingers 7.12502
rthumb 42.377 -29.6102
lclavicle -8.00605e-014 1.11319e-014
lhumerus 57.2765 -9.97716 19.9393
lradius 72.0408
lwrist -4.24935
lhand -2.44779 -4.15244
lfingers 7.12502
lthumb 23.2438 24.4647
rfemur -10.7489 1.19977 27.228
rtibia 32.0645
rfoot -20.2459 -12.1714
rtoes 4.85556
lfemur -9.07171 0.421964 -14.7526
ltibia 30.3683
lfoot -18.8485 0.320477
ltoes 7.89601
552
root -1.10018 17.517 -10.1246 -7.30792 55.0109 -11.9441
lowerback 3.26383 -0.115459 1.75679
upperback -3.53656 0.0123985 0.88645
thorax -5.49394 -0.0361303 -0.0676299
lowerneck 5.34485 -13.8981 -17.487
upperneck -30.4744 -16.1098 22.9418
head -6.28782 -8.06024 11.3595
rclavicle -4.32357e-015 -2.06736e-014
rhumerus 78.4936 -17.4249 -46.2232
rradius 27.5212
rwrist 12.4064
rhand 16.7964 -4.91995
rfingers 7.12502
rthumb 41.5398 -29.6623
lclavicle -4.32357e-015 -2.06736e-014
lhumerus 56.433 -10.3382 19.7134
lradius 72.6314
lwrist -3.8598
lhand -2.23624 -4.05294
lfingers 7.12502
lthumb 23.4468 24.5385
rfemur -10.8177 1.14017 27.3465
rtibia 31.9044
rfoot -20.1199 -12.516
rtoes 4.73332
lfemur -9.29546 0.40156 -14.6316
ltibia 30.3378
lfoot -18.7874 -0.0398648
ltoes 7.95754
553
root -1.10751 17.5238 -10.1176 -7.33202 55.3752 -12.1373
lowerback 3.34685 -0.127091 1.87094
upperback -3.49586 0.00422407 0.879871
thorax -5.49919 -0.0449387 -0.137709
lowerneck 5.35744 -14.0196 -17.4363
upperneck -30.6743 -16.2335 23.0466
head -6.3179 -8.12967 11.3979
rclavicle 1.85367e-014 -1.59028e-015
rhumerus 78.6877 -17.7699 -46.9074
rradius 27.3631
rwrist 11.8713
rhand 15.8575 -4.6535
rfingers 7.12502
rthumb 40.6582 -29.6776
lclavicle 1.85367e-014 -1.59028e-015
lhumerus 55.5775 -10.7257 19.5506
lradius 73.2043
lwrist -3.43141
lhand -2.08449 -3.95121
lfingers 7.12502
lthumb 23.5924 24.6215
rfemur -10.8841 1.08362 27.4795
rtibia 31.7425
rfoot -19.9914 -12.8851
rtoes 4.52781
lfemur -9.53885 0.367032 -14.5043
ltibia 30.3378
lfoot -18.7342 -0.386649
ltoes 8.07224
554
root -1.11436 17.5301 -10.1099 -7.35771 55.7348 -12.337
lowerback 3.41721 -0.133418 1.98592
upperback -3.45852 0.00322115 0.874564
thorax -5.50062 -0.050121 -0.207526
lowerneck 5.37856 -14.1458 -17.3673
upperneck -30.866 -16.3675 23.1322
head -6.34926 -8.20459 11.4265
rclavicle 5.37464e-014 1.43125e-014
rhumerus 78.8886 -18.1181 -47.5839
rradius 27.1966
rwrist 11.312
rhand 14.8995 -4.37411
rfingers 7.12502
rthumb 39.7571 -29.673
lclavicle 5.37464e-014 1.43125e-014
lhumerus 54.72 -11.1339 19.4527
lradius 73.7456
lwrist -2.97281
lhand -1.97433 -3.85848
lfingers 7.12502
lthumb 23.698 24.7006
rfemur -10.9535 1.04417 27.6171
rtibia 31.5839
rfoot -19.8695 -13.2629
rtoes 4.33853
lfemur -9.79274 0.316471 -14.3797
ltibia 30.3536
lfoot -18.6831 -0.697509
ltoes 8.17671
555
root -1.12046 17.5364 -10.102 -7.37453 56.0868 -12.5296
lowerback 3.47708 -0.143801 2.0982
upperback -3.41955 -0.00308486 0.878026
thorax -5.49447 -0.0575079 -0.266328
lowerneck 5.38414 -14.2695 -17.3012
upperneck -31.0499 -16.4995 23.2031
head -6.37773 -8.2765 11.4483
rclavicle -5.13858e-014 -2.70347e-014
rhumerus 79.1234 -18.4475 -48.2788
rradius 27.0439
rwrist 10.6973
rhand 13.9413 -4.09866
rfingers 7.12502
rthumb 38.8541 -29.6603
lclavicle -5.13858e-014 -2.70347e-014
lhumerus 53.836 -11.5377 19.4202
lradius 74.2429
lwrist -2.5
lhand -1.89153 -3.77794
lfingers 7.12502
lthumb 23.7774 24.7708
rfemur -11.0331 1.00862 27.7449
rtibia 31.4353
rfoot -19.7591 -13.6184
rtoes 4.19961
lfemur -10.0465 0.246707 -14.2683
ltibia 30.3675
lfoot -18.6269 -0.965695
ltoes 8.25684
